<mxfile host="app.diagrams.net" modified="2023-09-14T05:01:15.893Z" agent="Mozilla/5.0 (X11; Linux x86_64; rv:109.0) Gecko/20100101 Firefox/117.0" etag="sEB9hA0GWJjmPnehr4sR" version="21.7.5" type="github">
  <diagram id="C5RBs43oDa-KdzZeNtuy" name="Page-1">
    <mxGraphModel dx="1105" dy="713" grid="1" gridSize="10" guides="1" tooltips="1" connect="1" arrows="1" fold="1" page="1" pageScale="1" pageWidth="827" pageHeight="1169" math="0" shadow="0">
      <root>
        <mxCell id="WIyWlLk6GJQsqaUBKTNV-0" />
        <mxCell id="WIyWlLk6GJQsqaUBKTNV-1" parent="WIyWlLk6GJQsqaUBKTNV-0" />
        <mxCell id="kYTWcEQUJB0n5KQmX26y-7" style="edgeStyle=orthogonalEdgeStyle;rounded=0;orthogonalLoop=1;jettySize=auto;html=1;entryX=0.5;entryY=0;entryDx=0;entryDy=0;" edge="1" parent="WIyWlLk6GJQsqaUBKTNV-1" source="kYTWcEQUJB0n5KQmX26y-0" target="kYTWcEQUJB0n5KQmX26y-1">
          <mxGeometry relative="1" as="geometry" />
        </mxCell>
        <mxCell id="kYTWcEQUJB0n5KQmX26y-0" value="Begin" style="strokeWidth=2;html=1;shape=mxgraph.flowchart.terminator;whiteSpace=wrap;" vertex="1" parent="WIyWlLk6GJQsqaUBKTNV-1">
          <mxGeometry x="196" y="209" width="100" height="60" as="geometry" />
        </mxCell>
        <mxCell id="kYTWcEQUJB0n5KQmX26y-1" value="" style="verticalLabelPosition=bottom;verticalAlign=top;html=1;shape=hexagon;perimeter=hexagonPerimeter2;arcSize=6;size=0.27;" vertex="1" parent="WIyWlLk6GJQsqaUBKTNV-1">
          <mxGeometry x="196" y="329" width="100" height="60" as="geometry" />
        </mxCell>
        <mxCell id="kYTWcEQUJB0n5KQmX26y-8" style="edgeStyle=orthogonalEdgeStyle;rounded=0;orthogonalLoop=1;jettySize=auto;html=1;entryX=0.5;entryY=0;entryDx=0;entryDy=0;exitX=0.5;exitY=1;exitDx=0;exitDy=0;" edge="1" parent="WIyWlLk6GJQsqaUBKTNV-1" source="kYTWcEQUJB0n5KQmX26y-1" target="kYTWcEQUJB0n5KQmX26y-3">
          <mxGeometry relative="1" as="geometry" />
        </mxCell>
        <mxCell id="kYTWcEQUJB0n5KQmX26y-2" value="bilangan = 0" style="text;html=1;align=center;verticalAlign=middle;resizable=0;points=[];autosize=1;strokeColor=none;fillColor=none;" vertex="1" parent="WIyWlLk6GJQsqaUBKTNV-1">
          <mxGeometry x="206" y="344" width="80" height="30" as="geometry" />
        </mxCell>
        <mxCell id="kYTWcEQUJB0n5KQmX26y-9" style="edgeStyle=orthogonalEdgeStyle;rounded=0;orthogonalLoop=1;jettySize=auto;html=1;" edge="1" parent="WIyWlLk6GJQsqaUBKTNV-1" source="kYTWcEQUJB0n5KQmX26y-3" target="kYTWcEQUJB0n5KQmX26y-4">
          <mxGeometry relative="1" as="geometry" />
        </mxCell>
        <mxCell id="kYTWcEQUJB0n5KQmX26y-3" value="input(bilangan)" style="shape=parallelogram;perimeter=parallelogramPerimeter;whiteSpace=wrap;html=1;fixedSize=1;" vertex="1" parent="WIyWlLk6GJQsqaUBKTNV-1">
          <mxGeometry x="186" y="449" width="120" height="60" as="geometry" />
        </mxCell>
        <mxCell id="kYTWcEQUJB0n5KQmX26y-10" style="edgeStyle=orthogonalEdgeStyle;rounded=0;orthogonalLoop=1;jettySize=auto;html=1;entryX=0.5;entryY=0;entryDx=0;entryDy=0;entryPerimeter=0;" edge="1" parent="WIyWlLk6GJQsqaUBKTNV-1" source="kYTWcEQUJB0n5KQmX26y-4" target="kYTWcEQUJB0n5KQmX26y-5">
          <mxGeometry relative="1" as="geometry" />
        </mxCell>
        <mxCell id="kYTWcEQUJB0n5KQmX26y-31" value="No" style="edgeLabel;html=1;align=center;verticalAlign=middle;resizable=0;points=[];" vertex="1" connectable="0" parent="kYTWcEQUJB0n5KQmX26y-10">
          <mxGeometry x="-0.0827" y="1" relative="1" as="geometry">
            <mxPoint as="offset" />
          </mxGeometry>
        </mxCell>
        <mxCell id="kYTWcEQUJB0n5KQmX26y-21" style="edgeStyle=orthogonalEdgeStyle;rounded=0;orthogonalLoop=1;jettySize=auto;html=1;" edge="1" parent="WIyWlLk6GJQsqaUBKTNV-1" source="kYTWcEQUJB0n5KQmX26y-4" target="kYTWcEQUJB0n5KQmX26y-18">
          <mxGeometry relative="1" as="geometry" />
        </mxCell>
        <mxCell id="kYTWcEQUJB0n5KQmX26y-28" value="Yes" style="edgeLabel;html=1;align=center;verticalAlign=middle;resizable=0;points=[];" vertex="1" connectable="0" parent="kYTWcEQUJB0n5KQmX26y-21">
          <mxGeometry x="-0.2259" y="2" relative="1" as="geometry">
            <mxPoint x="5" y="2" as="offset" />
          </mxGeometry>
        </mxCell>
        <mxCell id="kYTWcEQUJB0n5KQmX26y-4" value="bilangan &amp;gt; 0" style="strokeWidth=2;html=1;shape=mxgraph.flowchart.decision;whiteSpace=wrap;" vertex="1" parent="WIyWlLk6GJQsqaUBKTNV-1">
          <mxGeometry x="191" y="569" width="110" height="100" as="geometry" />
        </mxCell>
        <mxCell id="kYTWcEQUJB0n5KQmX26y-11" style="edgeStyle=orthogonalEdgeStyle;rounded=0;orthogonalLoop=1;jettySize=auto;html=1;entryX=0;entryY=0.5;entryDx=0;entryDy=0;exitX=0.5;exitY=1;exitDx=0;exitDy=0;exitPerimeter=0;" edge="1" parent="WIyWlLk6GJQsqaUBKTNV-1" source="kYTWcEQUJB0n5KQmX26y-5" target="kYTWcEQUJB0n5KQmX26y-20">
          <mxGeometry relative="1" as="geometry">
            <mxPoint x="246" y="889" as="targetPoint" />
            <Array as="points">
              <mxPoint x="246" y="929" />
            </Array>
          </mxGeometry>
        </mxCell>
        <mxCell id="kYTWcEQUJB0n5KQmX26y-32" value="No" style="edgeLabel;html=1;align=center;verticalAlign=middle;resizable=0;points=[];" vertex="1" connectable="0" parent="kYTWcEQUJB0n5KQmX26y-11">
          <mxGeometry x="-0.1074" y="-1" relative="1" as="geometry">
            <mxPoint x="-1" y="-51" as="offset" />
          </mxGeometry>
        </mxCell>
        <mxCell id="kYTWcEQUJB0n5KQmX26y-22" style="edgeStyle=orthogonalEdgeStyle;rounded=0;orthogonalLoop=1;jettySize=auto;html=1;entryX=0.083;entryY=0.5;entryDx=0;entryDy=0;entryPerimeter=0;" edge="1" parent="WIyWlLk6GJQsqaUBKTNV-1" source="kYTWcEQUJB0n5KQmX26y-5" target="kYTWcEQUJB0n5KQmX26y-19">
          <mxGeometry relative="1" as="geometry">
            <Array as="points" />
          </mxGeometry>
        </mxCell>
        <mxCell id="kYTWcEQUJB0n5KQmX26y-34" value="Yes" style="edgeLabel;html=1;align=center;verticalAlign=middle;resizable=0;points=[];" vertex="1" connectable="0" parent="kYTWcEQUJB0n5KQmX26y-22">
          <mxGeometry x="0.108" y="2" relative="1" as="geometry">
            <mxPoint y="2" as="offset" />
          </mxGeometry>
        </mxCell>
        <mxCell id="kYTWcEQUJB0n5KQmX26y-5" value="bilangan = 0" style="strokeWidth=2;html=1;shape=mxgraph.flowchart.decision;whiteSpace=wrap;" vertex="1" parent="WIyWlLk6GJQsqaUBKTNV-1">
          <mxGeometry x="191" y="729" width="110" height="100" as="geometry" />
        </mxCell>
        <mxCell id="kYTWcEQUJB0n5KQmX26y-25" style="edgeStyle=orthogonalEdgeStyle;rounded=0;orthogonalLoop=1;jettySize=auto;html=1;entryX=0.5;entryY=0;entryDx=0;entryDy=0;entryPerimeter=0;" edge="1" parent="WIyWlLk6GJQsqaUBKTNV-1" source="kYTWcEQUJB0n5KQmX26y-18" target="kYTWcEQUJB0n5KQmX26y-24">
          <mxGeometry relative="1" as="geometry" />
        </mxCell>
        <mxCell id="kYTWcEQUJB0n5KQmX26y-18" value="cetak(&quot;positif&quot;)" style="shape=parallelogram;perimeter=parallelogramPerimeter;whiteSpace=wrap;html=1;fixedSize=1;" vertex="1" parent="WIyWlLk6GJQsqaUBKTNV-1">
          <mxGeometry x="382" y="589" width="120" height="60" as="geometry" />
        </mxCell>
        <mxCell id="kYTWcEQUJB0n5KQmX26y-26" style="edgeStyle=orthogonalEdgeStyle;rounded=0;orthogonalLoop=1;jettySize=auto;html=1;entryX=0;entryY=0.5;entryDx=0;entryDy=0;entryPerimeter=0;" edge="1" parent="WIyWlLk6GJQsqaUBKTNV-1" source="kYTWcEQUJB0n5KQmX26y-19" target="kYTWcEQUJB0n5KQmX26y-24">
          <mxGeometry relative="1" as="geometry" />
        </mxCell>
        <mxCell id="kYTWcEQUJB0n5KQmX26y-19" value="cetak(&quot;netral&quot;)" style="shape=parallelogram;perimeter=parallelogramPerimeter;whiteSpace=wrap;html=1;fixedSize=1;" vertex="1" parent="WIyWlLk6GJQsqaUBKTNV-1">
          <mxGeometry x="372" y="749" width="120" height="60" as="geometry" />
        </mxCell>
        <mxCell id="kYTWcEQUJB0n5KQmX26y-27" style="edgeStyle=orthogonalEdgeStyle;rounded=0;orthogonalLoop=1;jettySize=auto;html=1;entryX=0.5;entryY=1;entryDx=0;entryDy=0;entryPerimeter=0;" edge="1" parent="WIyWlLk6GJQsqaUBKTNV-1" source="kYTWcEQUJB0n5KQmX26y-20" target="kYTWcEQUJB0n5KQmX26y-24">
          <mxGeometry relative="1" as="geometry" />
        </mxCell>
        <mxCell id="kYTWcEQUJB0n5KQmX26y-20" value="cetak(&quot;negatif&quot;)" style="shape=parallelogram;perimeter=parallelogramPerimeter;whiteSpace=wrap;html=1;fixedSize=1;" vertex="1" parent="WIyWlLk6GJQsqaUBKTNV-1">
          <mxGeometry x="362" y="899" width="120" height="60" as="geometry" />
        </mxCell>
        <mxCell id="kYTWcEQUJB0n5KQmX26y-24" value="End" style="strokeWidth=2;html=1;shape=mxgraph.flowchart.terminator;whiteSpace=wrap;" vertex="1" parent="WIyWlLk6GJQsqaUBKTNV-1">
          <mxGeometry x="542" y="749" width="100" height="60" as="geometry" />
        </mxCell>
      </root>
    </mxGraphModel>
  </diagram>
</mxfile>
